<?xml version="1.0" standalone="no"?>
<!DOCTYPE svg PUBLIC "-//W3C//DTD SVG 20010904//EN"
 "http://www.w3.org/TR/2001/REC-SVG-20010904/DTD/svg10.dtd">
<svg version="1.0" xmlns="http://www.w3.org/2000/svg"
 width="208.000000pt" height="288.000000pt" viewBox="0 0 208.000000 288.000000"
 preserveAspectRatio="xMidYMid meet">
<metadata>
Created by potrace 1.15, written by Peter Selinger 2001-2017
</metadata>
<g transform="translate(0.000000,288.000000) scale(0.100000,-0.100000)"
fill="#000000" stroke="none">
<path d="M336 2853 c-99 -21 -191 -84 -249 -172 -80 -120 -77 -80 -77 -1231 0
-1151 -3 -1111 77 -1231 61 -92 148 -150 257 -173 116 -24 1256 -24 1372 0
109 23 196 81 257 173 80 120 77 80 77 1231 0 1151 3 1111 -77 1231 -61 92
-148 150 -257 173 -111 23 -1273 22 -1380 -1z m130 -245 c58 -63 58 -153 0
-216 -29 -32 -40 -36 -93 -40 -53 -4 -62 -1 -91 23 -43 36 -62 75 -62 125 0
50 19 89 62 125 29 24 38 27 91 23 53 -4 64 -8 93 -40z m1314 16 c41 -35 60
-74 60 -124 0 -50 -19 -89 -62 -125 -29 -24 -38 -27 -91 -23 -53 4 -64 8 -93
40 -55 60 -58 148 -7 209 32 38 55 48 115 48 36 1 53 -5 78 -25z m-625 -129
c33 -8 98 -34 145 -57 166 -80 306 -257 356 -448 23 -87 23 -254 0 -340 -30
-118 -124 -284 -190 -339 -13 -11 -16 -36 -16 -142 l0 -129 95 0 95 0 0 -229
0 -228 -44 -17 c-55 -21 -111 -81 -127 -135 l-12 -41 -464 0 -463 0 0 23 c0
57 -83 144 -152 161 l-28 6 0 230 0 229 98 3 97 3 0 126 0 125 -57 63 c-185
205 -222 539 -87 790 92 170 228 283 409 337 92 28 254 32 345 9z m644 -670
c69 -141 85 -211 85 -375 0 -98 -5 -154 -18 -205 -22 -85 -90 -232 -140 -300
l-36 -50 0 98 0 97 -100 0 -100 0 0 90 0 90 60 76 c120 151 165 282 165 486 0
134 0 137 18 115 10 -12 40 -67 66 -122z m-1495 -220 c27 -90 90 -206 152
-273 l54 -60 0 -91 0 -91 -99 0 -100 0 -3 -52 -3 -53 -47 95 c-66 137 -82 208
-82 370 0 146 14 223 63 335 l25 59 12 -89 c6 -50 19 -117 28 -150z m107
-1141 c61 -58 60 -140 -1 -199 -26 -25 -40 -30 -80 -30 -40 0 -54 5 -79 29
-37 35 -55 85 -46 126 8 35 49 88 79 101 36 15 96 3 127 -27z m1317 16 c35
-21 62 -72 62 -115 0 -69 -60 -135 -123 -135 -128 0 -174 183 -64 250 41 25
83 25 125 0z"/>
<path d="M840 2318 c-221 -77 -360 -278 -360 -518 0 -245 149 -454 373 -521
55 -17 87 -21 171 -17 98 3 108 6 188 45 160 80 265 223 295 405 14 78 14 98
0 176 -30 182 -135 325 -295 405 -83 41 -89 42 -196 45 -94 2 -121 -1 -176
-20z m303 -186 c70 -31 149 -111 183 -185 25 -53 29 -75 29 -147 0 -110 -32
-186 -111 -260 -80 -76 -129 -95 -244 -95 -88 0 -101 3 -162 33 -129 63 -200
178 -200 322 0 160 83 278 240 341 64 26 197 22 265 -9z"/>
</g>
</svg>
