<?xml version="1.0" standalone="no"?>
<!DOCTYPE svg PUBLIC "-//W3C//DTD SVG 20010904//EN"
 "http://www.w3.org/TR/2001/REC-SVG-20010904/DTD/svg10.dtd">
<svg version="1.0" xmlns="http://www.w3.org/2000/svg"
 width="210.000000pt" height="290.000000pt" viewBox="0 0 210.000000 290.000000"
 preserveAspectRatio="xMidYMid meet">
<metadata>
Created by potrace 1.15, written by Peter Selinger 2001-2017
</metadata>
<g transform="translate(0.000000,290.000000) scale(0.100000,-0.100000)"
fill="#000000" stroke="none">
<path d="M237 2869 c-87 -21 -168 -105 -187 -196 -7 -32 -10 -461 -8 -1243 3
-1165 3 -1196 23 -1235 25 -50 80 -105 130 -130 39 -19 64 -20 785 -20 721 0
746 1 785 20 21 10 56 36 76 56 26 26 48 38 80 43 85 14 141 70 155 154 l7 42
-92 0 c-84 0 -91 1 -91 20 0 19 7 20 90 20 83 0 90 1 90 20 0 19 -7 20 -90 20
-83 0 -90 1 -90 20 0 19 7 20 90 20 83 0 90 1 90 20 0 19 -7 20 -90 20 -83 0
-90 1 -90 20 0 19 7 20 90 20 83 0 90 1 90 20 0 19 -7 20 -90 20 -83 0 -90 1
-90 20 0 19 7 20 90 20 83 0 90 1 90 20 0 19 -7 20 -90 20 -83 0 -90 1 -90 20
0 19 7 20 90 20 83 0 90 1 90 20 0 19 -7 20 -90 20 -83 0 -90 1 -90 20 0 19 7
20 90 20 83 0 90 1 90 20 0 19 -7 20 -90 20 -83 0 -90 1 -90 20 0 19 7 20 90
20 83 0 90 1 90 20 0 19 -7 20 -90 20 -83 0 -90 1 -90 20 0 19 7 20 90 20 83
0 90 1 90 20 0 19 -7 20 -90 20 -83 0 -90 1 -90 20 0 19 7 20 90 20 83 0 90 1
90 20 0 19 -7 20 -90 20 -83 0 -90 1 -90 20 0 19 7 20 90 20 83 0 90 1 90 20
0 19 -7 20 -90 20 -83 0 -90 1 -90 20 0 19 7 20 90 20 83 0 90 1 90 20 0 19
-7 20 -90 20 -83 0 -90 1 -90 20 0 19 7 20 91 20 l92 0 -7 43 c-4 23 -18 59
-32 80 l-24 37 24 38 c14 20 28 56 32 80 l7 42 -92 0 c-84 0 -91 1 -91 20 0
19 7 20 90 20 83 0 90 1 90 20 0 19 -7 20 -90 20 -83 0 -90 1 -90 20 0 19 7
20 90 20 83 0 90 1 90 20 0 19 -7 20 -90 20 -83 0 -90 1 -90 20 0 19 7 20 90
20 83 0 90 1 90 20 0 19 -7 20 -90 20 -83 0 -90 1 -90 20 0 19 7 20 90 20 83
0 90 1 90 20 0 19 -7 20 -90 20 -83 0 -90 1 -90 20 0 19 7 20 90 20 83 0 90 1
90 20 0 19 -7 20 -90 20 -83 0 -90 1 -90 20 0 19 7 20 90 20 83 0 90 1 90 20
0 19 -7 20 -90 20 -83 0 -90 1 -90 20 0 19 7 20 90 20 83 0 90 1 90 20 0 19
-7 20 -90 20 -83 0 -90 1 -90 20 0 19 7 20 90 20 83 0 90 1 90 20 0 19 -7 20
-90 20 -83 0 -90 1 -90 20 0 19 7 20 90 20 83 0 90 1 90 20 0 19 -7 20 -90 20
-83 0 -90 1 -90 20 0 19 7 20 90 20 83 0 90 1 90 20 0 19 -7 20 -90 20 -83 0
-90 1 -90 20 0 19 7 20 90 20 83 0 90 1 90 20 0 19 -7 20 -90 20 -83 0 -90 1
-90 20 0 19 7 20 91 20 l92 0 -7 42 c-13 79 -67 136 -144 153 -23 5 -41 19
-61 49 -35 51 -95 92 -153 106 -54 12 -1428 12 -1481 -1z m1323 -1409 l0
-1260 -140 0 -140 0 0 1260 0 1260 140 0 140 0 0 -1260z m-513 1147 l28 -27 0
-180 0 -180 -28 -27 -27 -28 -320 0 -320 0 -27 28 -28 27 0 179 c0 165 2 181
20 201 11 12 29 26 40 31 11 4 158 7 327 6 l308 -2 27 -28z m149 -338 l44 -11
0 -798 0 -798 -44 -11 c-69 -17 -76 -15 -76 20 0 43 -33 94 -74 113 -29 13
-77 16 -305 16 -242 0 -275 2 -298 18 -26 16 -17 17 284 22 l312 5 30 29 c49
47 53 68 49 259 -3 159 -5 178 -24 204 -45 61 -58 63 -397 63 -423 0 -409 8
-417 -240 l-5 -155 -42 85 c-65 129 -86 220 -86 370 0 150 21 241 86 370 l42
85 5 -175 c8 -271 -10 -260 417 -260 339 0 352 2 397 63 19 26 21 45 24 210 2
168 1 185 -18 215 -11 18 -34 41 -52 52 -31 19 -52 20 -353 20 l-320 1 44 39
44 40 274 0 c232 0 280 3 309 16 41 19 74 70 74 113 0 35 7 37 76 20z m486
-354 l33 -49 5 -176 c5 -161 7 -178 28 -207 12 -17 22 -36 22 -43 0 -7 -10
-26 -22 -43 -21 -29 -23 -47 -28 -187 -5 -155 -5 -156 -38 -205 -18 -28 -43
-63 -57 -80 l-25 -30 0 565 0 565 25 -30 c14 -16 39 -52 57 -80z m-635 52 l28
-27 0 -180 0 -180 -28 -27 -27 -28 -320 0 -320 0 -27 28 -28 27 0 179 c0 165
2 181 20 201 11 12 29 26 40 31 11 4 158 7 327 6 l308 -2 27 -28z m0 -640 l28
-27 0 -180 0 -180 -28 -27 -27 -28 -320 0 -320 0 -27 28 -28 27 0 179 c0 165
2 181 20 201 11 12 29 26 40 31 11 4 158 7 327 6 l308 -2 27 -28z m0 -600 l28
-27 0 -180 0 -180 -28 -27 -27 -28 -320 0 -320 0 -27 28 -28 27 0 179 c0 165
2 181 20 201 11 12 29 26 40 31 11 4 158 7 327 6 l308 -2 27 -28z"/>
</g>
</svg>
