<?xml version="1.0" standalone="no"?>
<!DOCTYPE svg PUBLIC "-//W3C//DTD SVG 20010904//EN"
 "http://www.w3.org/TR/2001/REC-SVG-20010904/DTD/svg10.dtd">
<svg version="1.0" xmlns="http://www.w3.org/2000/svg"
 width="247.000000pt" height="249.000000pt" viewBox="0 0 247.000000 249.000000"
 preserveAspectRatio="xMidYMid meet">
<metadata>
Created by potrace 1.15, written by Peter Selinger 2001-2017
</metadata>
<g transform="translate(0.000000,249.000000) scale(0.100000,-0.100000)"
fill="#000000" stroke="none">
<path d="M1045 2429 c-99 -14 -234 -57 -334 -105 -349 -167 -585 -466 -667
-846 -26 -116 -25 -361 0 -478 81 -376 324 -682 668 -845 597 -282 1312 -23
1592 577 82 175 110 303 111 503 0 164 -11 239 -56 378 -138 427 -515 746
-959 813 -103 15 -260 17 -355 3z m342 -100 c161 -22 350 -100 484 -200 110
-81 276 -269 305 -343 17 -44 -136 11 -252 90 -52 36 -108 67 -124 71 -36 7
-165 -11 -268 -38 -42 -10 -146 -47 -231 -82 l-156 -62 210 -7 c264 -9 361
-21 391 -49 32 -30 48 -101 47 -204 -1 -111 -18 -160 -60 -169 -15 -4 -89 0
-163 8 -181 20 -253 4 -294 -64 -20 -35 -21 -103 -1 -120 8 -6 61 -16 117 -21
57 -5 182 -20 277 -34 224 -32 239 -32 341 11 114 49 271 104 294 104 17 0 18
-6 12 -79 -21 -253 -144 -510 -330 -689 -203 -195 -440 -297 -718 -309 -246
-11 -466 51 -671 188 -80 54 -242 217 -292 294 -126 193 -184 386 -185 616 -1
398 203 749 556 958 87 51 239 107 343 125 94 17 264 20 368 5z"/>
<path d="M390 1686 c-23 -25 -25 -37 -28 -127 l-4 -99 697 0 698 0 -5 73 c-3
43 -13 90 -24 113 -17 35 -24 40 -64 46 -25 3 -315 9 -645 13 l-600 8 -25 -27z"/>
<path d="M360 1042 l0 -269 26 -24 26 -24 711 0 c560 0 717 3 734 13 31 17 38
49 38 176 l0 110 -195 27 c-107 16 -247 33 -310 40 -63 6 -123 15 -132 20 -43
23 -58 101 -33 177 l7 22 -436 0 -436 0 0 -268z"/>
</g>
</svg>
